<svg width="50" height="50" viewBox="0 0 50 50" fill="none" xmlns="http://www.w3.org/2000/svg">
<g clip-path="url(#clip0_107_210)">
<rect width="50" height="50" rx="25" fill="white"/>
<path d="M0 0H100V100H0V0Z" fill="white"/>
<path d="M25.316 18.1822C27.347 18.1822 28.7171 19.0595 29.4982 19.7926L32.5507 16.8122C30.676 15.0696 28.2363 14 25.316 14C21.0858 14 17.4324 16.4276 15.6537 19.9608L19.1509 22.6768C20.0282 20.069 22.4558 18.1822 25.316 18.1822Z" fill="#EA4335"/>
<path d="M35.6994 25.0563C35.6994 24.167 35.6273 23.5181 35.471 22.8451H25.316V26.859H31.2768C31.1566 27.8565 30.5077 29.3587 29.0656 30.3682L32.4786 33.0121C34.5216 31.1253 35.6994 28.3492 35.6994 25.0563Z" fill="#4285F4"/>
<path d="M19.1629 26.9551C18.9346 26.2821 18.8024 25.5611 18.8024 24.816C18.8024 24.0709 18.9346 23.3498 19.1509 22.6768L15.6537 19.9608C14.9206 21.427 14.5 23.0734 14.5 24.816C14.5 26.5586 14.9206 28.205 15.6537 29.6712L19.1629 26.9551Z" fill="#FBBC05"/>
<path d="M25.316 35.632C28.2363 35.632 30.688 34.6706 32.4786 33.0121L29.0656 30.3682C28.1522 31.0051 26.9264 31.4498 25.316 31.4498C22.4557 31.4498 20.0282 29.563 19.1629 26.9551L15.6657 29.6711C17.4443 33.2044 21.0857 35.632 25.316 35.632Z" fill="#34A853"/>
</g>
<defs>
<clipPath id="clip0_107_210">
<rect width="50" height="50" rx="25" fill="white"/>
</clipPath>
</defs>
</svg>
