<svg width="40" height="40" viewBox="0 0 40 40" fill="none" xmlns="http://www.w3.org/2000/svg">
<g clip-path="url(#clip0_705_1184)">
<rect width="40" height="40" rx="20" fill="white"/>
<path fill-rule="evenodd" clip-rule="evenodd" d="M100 0H0V100H100V0ZM11.435 24.6692L10 30L15.3896 28.5631C17.4863 29.6904 19.9202 30.0258 22.2448 29.5076C24.5694 28.9894 26.6286 27.6524 28.0447 25.742C29.4608 23.8316 30.1387 21.476 29.9541 19.1073C29.7694 16.7385 28.7346 14.5157 27.0394 12.8466C25.3443 11.1775 23.1026 10.1742 20.7256 10.0206C18.3487 9.86712 15.996 10.5737 14.0992 12.0108C12.2024 13.4479 10.8888 15.5191 10.3994 17.8442C9.91003 20.1694 10.2777 22.5926 11.435 24.6692ZM15.9827 26.7655L15.6494 26.5683L12.6383 27.3684L13.4405 24.3931L13.2315 24.0494C12.4654 22.8052 12.0606 21.3733 12.062 19.9132C12.0594 18.1523 12.6409 16.44 13.7158 15.0431C14.7907 13.6462 16.2986 12.6432 18.0047 12.1904C19.7108 11.7377 21.5191 11.8605 23.1478 12.5399C24.7765 13.2192 26.1342 14.4169 27.0093 15.9463C27.8844 17.4756 28.2277 19.2508 27.9857 20.9951C27.7437 22.7394 26.9301 24.3549 25.6715 25.5898C24.4129 26.8246 22.7802 27.6096 21.0277 27.8222C19.2752 28.0349 17.5014 27.6633 15.9827 26.7655ZM23.0703 20.9585C23.3151 21.0142 23.5438 21.1249 23.7392 21.2821C23.7961 21.3154 23.8584 21.3499 23.9234 21.386C24.2976 21.5935 24.7656 21.8528 24.8522 22.2513C24.8946 22.48 24.865 22.7162 24.7674 22.9275C24.6014 23.2772 24.3518 23.5809 24.0405 23.8118C23.7292 24.0428 23.3658 24.1938 22.9822 24.2517C22.309 24.3279 21.6277 24.2208 21.0106 23.9418C20.4165 23.7389 19.8478 23.4685 19.3157 23.136C18.2554 22.4816 17.3325 21.628 16.5984 20.6228C16.3725 20.3167 16.1631 19.9988 15.9713 19.6704C15.7054 19.2418 15.5036 18.7767 15.3724 18.2898C15.3208 18.0872 15.2942 17.879 15.2934 17.67C15.2804 17.2977 15.3513 16.9272 15.5009 16.5859C15.6505 16.2446 15.8749 15.9411 16.1577 15.6977C16.3206 15.5531 16.5219 15.4586 16.7375 15.4256C16.953 15.3926 17.1735 15.4225 17.3723 15.5118C17.7579 15.8367 18.0422 16.2649 18.1915 16.7458C18.3847 17.0889 18.4749 17.4801 18.4514 17.8728C18.3454 18.2289 18.1511 18.5526 17.8864 18.8139C17.8108 18.8784 17.7633 18.9697 17.7538 19.0685C17.7443 19.1673 17.7736 19.2659 17.8356 19.3436C18.5619 20.5882 19.6888 21.5514 21.0332 22.0766C21.108 22.1175 21.1952 22.1297 21.2784 22.111C21.3616 22.0924 21.4351 22.0441 21.4851 21.9752C21.5595 21.8851 21.6339 21.7668 21.7123 21.6421L21.7123 21.642L21.7123 21.642C21.8839 21.3689 22.0748 21.0653 22.3269 20.9609C22.5713 20.9037 22.8256 20.9029 23.0703 20.9585Z" fill="#00D95F"/>
</g>
<defs>
<clipPath id="clip0_705_1184">
<rect width="40" height="40" rx="20" fill="white"/>
</clipPath>
</defs>
</svg>
